<svg width="15" height="15" viewBox="0 0 15 15" fill="none" xmlns="http://www.w3.org/2000/svg">
<path d="M2.03517 5.8863C2.03517 3.6572 3.84222 1.85015 6.07132 1.85015C8.3004 1.85015 10.1075 3.6572 10.1075 5.8863C10.1075 8.11538 8.3004 9.92244 6.07132 9.92244C3.84222 9.92244 2.03517 8.11538 2.03517 5.8863ZM6.07132 0.235693C2.95058 0.235693 0.420715 2.76556 0.420715 5.8863C0.420715 9.00704 2.95058 11.5369 6.07132 11.5369C7.34052 11.5369 8.51206 11.1184 9.45538 10.4119L13.5728 14.5294C13.888 14.8446 14.3992 14.8446 14.7144 14.5294C15.0296 14.2142 15.0296 13.703 14.7144 13.3878L10.597 9.27036C11.3035 8.32703 11.7219 7.1555 11.7219 5.8863C11.7219 2.76556 9.19206 0.235693 6.07132 0.235693Z" fill="#EDEDED"/>
</svg>
